<svg xmlns="http://www.w3.org/2000/svg" viewBox="0 0 420 594" width="420" height="594">
  <!-- 図指差し用: 手の輪郭（右手・掌をこちらに向けた向き）。A5 印刷想定。
       インタビューで「手の『目』はどこにあったと思いますか」と聞き、丸をつけてもらう。 -->
  <rect width="420" height="594" fill="white"/>
  <text x="210" y="40" font-family="sans-serif" font-size="16" text-anchor="middle" fill="#222">
    「手」の目はどこにあったと思いますか？ 丸をつけてください
  </text>

  <g stroke="#222" stroke-width="3" fill="none" stroke-linejoin="round" stroke-linecap="round">
    <!-- 掌 -->
    <path d="M 150 430
             C 140 380, 138 340, 145 300
             L 145 295
             C 130 285, 112 270, 105 250
             C 98 230, 108 222, 122 230
             C 136 238, 146 252, 152 262
             L 158 240
             C 156 200, 158 165, 166 150
             C 174 135, 186 138, 188 154
             C 190 170, 190 205, 191 235
             L 198 232
             C 198 185, 202 145, 210 128
             C 218 111, 232 114, 233 132
             C 234 150, 232 195, 232 230
             L 240 230
             C 242 190, 246 155, 254 140
             C 262 125, 275 128, 276 146
             C 277 164, 272 205, 270 238
             L 278 240
             C 282 210, 288 185, 296 174
             C 304 163, 316 167, 316 182
             C 316 197, 308 235, 302 265
             C 296 295, 292 330, 290 360
             C 288 395, 282 420, 272 440
             C 260 462, 235 472, 210 470
             C 185 468, 160 455, 150 430 Z"/>
    <!-- 掌のしわ（目印） -->
    <path d="M 170 320 C 195 335, 240 338, 268 325" stroke-width="1.5" opacity="0.5"/>
    <path d="M 165 360 C 195 378, 240 380, 272 365" stroke-width="1.5" opacity="0.5"/>
  </g>

  <text x="210" y="560" font-family="sans-serif" font-size="12" text-anchor="middle" fill="#666">
    参加者ID: ________　役割経験: 人役・手役・両方　（裏面メモ可）
  </text>
</svg>
